<svg width="16" height="16" viewBox="0 0 16 16" fill="none" xmlns="http://www.w3.org/2000/svg">
<g clip-path="url(#clip0_9336_7573)">
<path d="M6.06016 5.99967C6.2169 5.55412 6.52626 5.17841 6.93347 4.9391C7.34067 4.69978 7.81943 4.6123 8.28495 4.69215C8.75047 4.772 9.17271 5.01402 9.47688 5.37536C9.78106 5.7367 9.94753 6.19402 9.94683 6.66634C9.94683 7.99967 7.94683 8.66634 7.94683 8.66634M8.00016 11.333H8.00683M14.6668 7.99967C14.6668 11.6816 11.6821 14.6663 8.00016 14.6663C4.31826 14.6663 1.3335 11.6816 1.3335 7.99967C1.3335 4.31778 4.31826 1.33301 8.00016 1.33301C11.6821 1.33301 14.6668 4.31778 14.6668 7.99967Z" stroke="#98A2B3" stroke-width="1.33333" stroke-linecap="round" stroke-linejoin="round"/>
</g>
<defs>
<clipPath id="clip0_9336_7573">
<rect width="16" height="16" fill="white"/>
</clipPath>
</defs>
</svg>
